<?xml version="1.0" encoding="utf-8"?>
<svg viewBox="0 0 24 24" xmlns="http://www.w3.org/2000/svg">
  <defs id="defs3051">
    <style type="text/css" id="current-color-scheme">
      .ColorScheme-Text {
        color:#232629;
      }
      </style>
  </defs>
  <path style="fill:currentColor;fill-opacity:1;stroke:none" d="M 12 3 C 12 3 9.75 5.99 3 6.74 C 3 6.74 3 17.241 12 21 C 21 17.241 21 6.74 21 6.74 C 14.25 5.99 12 3 12 3 Z M 12 4.549 C 13.786 6.062 16.361 7.071 19.701 7.579 C 19.52 9.205 19.346 10.429 18.926 11.611 C 18.043 14.096 17.013 15.608 16.089 16.695 C 14.658 18.38 13.358 19.062 12 19.741 C 10.642 19.062 9.342 18.38 7.911 16.695 C 6.987 15.608 5.957 14.096 5.075 11.611 C 4.654 10.429 4.48 9.205 4.299 7.579 C 7.639 7.071 10.214 6.062 12 4.549 Z M 12 5.898 C 10.039 7.26 7.835 7.949 5.624 8.419 C 6.671 14.361 8.927 16.901 12 18.493 L 12 5.898 Z" class="ColorScheme-Text"/>
</svg>