<?xml version="1.0" encoding="utf-8"?>
<svg width="24" height="24" viewBox="0 0 5.821 5.821" xmlns="http://www.w3.org/2000/svg">
  <defs id="defs1">
    <style type="text/css" id="current-color-scheme">
            .ColorScheme-Text {
                color:#232629;
            }
        </style>
  </defs>
  <path style="fill: currentcolor; fill-opacity: 1; stroke: none;" class="ColorScheme-Text" d="M 2.556 3.331 C 2.519 3.332 2.482 3.334 2.445 3.338 C 1.889 3.396 1.484 3.791 1.466 4.251 L 1.471 4.255 C 1.502 4.295 1.537 4.337 1.568 4.384 L 1.624 4.338 C 1.683 4.291 1.754 4.256 1.833 4.234 C 1.933 4.205 2.034 4.28 2.013 4.369 C 2.006 4.401 1.982 4.429 1.948 4.447 C 1.973 4.435 1.945 4.454 1.934 4.493 C 1.925 4.535 1.923 4.577 1.929 4.619 C 2.017 4.884 2.376 5.09 2.833 5.024 C 3.171 4.959 3.5 4.796 3.61 4.45 C 3.681 4.222 3.657 4.004 3.559 3.819 C 3.365 3.515 2.977 3.326 2.556 3.331 Z M 3.143 0.274 L 3.124 0.458 L 3.064 0.529 L 3.04 0.664 L 3.076 0.737 C 3.083 0.756 3.093 0.775 3.103 0.795 L 3.123 0.833 L 3.164 0.714 C 3.171 0.695 3.177 0.677 3.183 0.659 L 3.237 0.503 L 3.214 0.364 Z M 3.082 1.099 C 3.044 1.148 3.011 1.199 2.983 1.254 L 2.897 1.391 L 2.772 1.713 C 2.764 1.726 2.76 1.738 2.756 1.752 L 2.953 2.014 L 3.053 2.1 L 3.09 2.131 L 3.054 1.946 L 3.052 1.93 L 3.044 1.271 Z M 1.287 2.824 L 1.299 3.182 L 1.205 3.334 L 1.194 3.602 L 1.284 3.736 C 1.29 3.747 1.298 3.757 1.304 3.768 C 1.34 3.636 1.408 3.512 1.504 3.403 L 1.534 3.25 L 1.447 2.984 Z M 2.891 0.68 C 2.821 0.718 2.756 0.76 2.696 0.802 L 2.459 1 L 2.207 1.341 L 2.054 1.716 L 1.997 2.127 C 1.989 2.33 2.014 2.532 2.071 2.73 L 2.071 2.732 C 2.124 2.915 2.134 3.001 2.233 3.146 C 3.367 2.984 4.118 3.697 3.865 4.467 C 3.731 4.874 3.319 5.07 2.925 5.143 C 2.368 5.221 1.9 4.977 1.786 4.634 C 1.765 4.521 1.798 4.369 1.878 4.33 C 1.833 4.343 1.776 4.359 1.711 4.409 C 1.597 4.496 1.594 4.527 1.447 4.56 C 1.518 4.396 1.123 4.26 1.194 3.906 L 1.179 3.965 C 1.004 4.749 1.99 5.632 3.084 5.393 C 3.749 5.267 4.265 4.842 4.414 4.299 C 4.498 4.009 4.473 3.712 4.396 3.462 C 4.324 3.237 4.194 3.027 4.015 2.845 C 3.955 2.785 3.892 2.726 3.823 2.671 L 3.821 2.669 L 3.816 2.665 C 3.676 2.553 3.526 2.448 3.371 2.351 L 2.937 2.046 L 2.913 2.025 L 2.779 1.88 C 2.768 1.866 2.757 1.851 2.748 1.837 L 2.645 1.595 L 2.609 1.265 L 2.659 0.985 C 2.661 0.979 2.663 0.972 2.665 0.967 Z"/>
</svg>