<?xml version="1.0" encoding="utf-8"?>
<svg viewBox="0 0 24 24" xmlns="http://www.w3.org/2000/svg">
  <defs id="defs3051">
    <style type="text/css" id="current-color-scheme">
      .ColorScheme-Text {
        color:#232629;
      }
      </style>
  </defs>
  <path style="fill: rgb(32, 154, 231);" d="M 11.357 5 C 8.162 5 5.571 7.564 5.571 10.728 C 5.554 10.981 5.554 11.236 5.571 11.491 C 3.998 12.041 2.96 13.529 3 15.182 C 3 17.292 4.727 19 6.857 19 L 16.5 19 C 18.984 19 20.999 17.005 20.999 14.545 C 21.023 12.313 19.373 10.409 17.143 10.091 C 16.813 7.179 14.317 4.982 11.357 5 Z M 11.357 6.273 C 13.842 6.273 15.858 8.268 15.858 10.728 C 15.872 10.938 15.872 11.151 15.858 11.365 C 16.071 11.342 16.285 11.342 16.5 11.365 C 18.275 11.365 19.714 12.787 19.714 14.545 C 19.714 16.302 18.275 17.728 16.5 17.728 L 6.857 17.728 C 5.437 17.728 4.286 16.588 4.286 15.182 C 4.286 13.776 5.437 12.636 6.857 12.636 C 7.027 12.62 7.201 12.62 7.371 12.636 C 7.059 12.046 6.882 11.393 6.857 10.728 C 6.857 8.268 8.873 6.273 11.357 6.273 Z" class="ColorScheme-Text"/>
</svg>