<svg viewBox="3.737 5.94 121.336 118.718" xmlns="http://www.w3.org/2000/svg"><g style="display:inline"><path d="M39.34 6.102h10.246v14.931H39.34V6.102z" style="fill:#642909;fill-opacity:1;fill-rule:evenodd;stroke:#642909;stroke-width:.97238445;stroke-miterlimit:8.69999981;stroke-opacity:0" transform="matrix(.78453 0 0 .8544 20.805 10.151)"/><path d="M31.157 13.93h9.163v14.477h-9.163V13.931z" style="fill:#642909;fill-opacity:1;fill-rule:evenodd;stroke:#642909;stroke-width:.9949488;stroke-miterlimit:8.69999981;stroke-opacity:0" transform="matrix(.78453 0 0 .8544 20.805 10.151)"/><path d="M22.936 20.962h8.4v15.654h-8.4V20.962z" style="fill:#642909;fill-opacity:1;fill-rule:evenodd;stroke:#642909;stroke-width:.98637319;stroke-miterlimit:8.69999981;stroke-opacity:0" transform="matrix(.78453 0 0 .8544 20.805 10.151)"/><path d="M13.927 36.046h8.724v51.69h-8.724v-51.69z" style="fill:#642909;fill-opacity:1;fill-rule:evenodd;stroke:#642909;stroke-width:.91249251;stroke-miterlimit:8.69999981;stroke-opacity:0" transform="matrix(.78453 0 0 .8544 20.805 10.151)"/><path d="M3.935 58.027h10.201v7.294H3.935v-7.294z" style="fill:#642909;fill-opacity:1;fill-rule:evenodd;stroke:#642909;stroke-width:1.01180661;stroke-miterlimit:8.69999981;stroke-opacity:0" transform="matrix(.78453 0 0 .8544 20.805 10.151)"/><path d="M5.202 72.75H15.93v7.602H5.202V72.75z" style="fill:#642909;fill-opacity:1;fill-rule:evenodd;stroke:#642909;stroke-width:.91249251;stroke-miterlimit:8.69999981;stroke-opacity:0" transform="matrix(.78453 0 0 .8544 20.805 10.151)"/><path d="M4.342 87.519h9.585v37.138H4.342V87.52z" style="fill:#414041;fill-opacity:1;fill-rule:evenodd;stroke:#414041;stroke-width:.91249251;stroke-miterlimit:8.69999981;stroke-opacity:1" transform="matrix(.78453 0 0 .8544 20.805 10.151)"/><path d="M23.18 102.505h44.417v7.384H23.18v-7.384z" style="fill:#642909;fill-opacity:1;fill-rule:evenodd;stroke:#642909;stroke-width:.91249251;stroke-miterlimit:8.69999981;stroke-opacity:0" transform="matrix(.78453 0 0 .8544 20.805 10.151)"/><path d="M49.354 109.672h9.782v14.985h-9.782v-14.985zM40.63 57.982h9.253V65.8H40.63v-7.818zM59.136 50.815h8.99v7.384h-8.99v-7.384zM76.85 58.199h9.518v6.733H76.85v-6.733z" style="fill:#642909;fill-opacity:1;fill-rule:evenodd;stroke:#642909;stroke-width:.91249251;stroke-miterlimit:8.69999981;stroke-opacity:0" transform="matrix(.78453 0 0 .8544 20.805 10.151)"/><path d="M68.125 43.213H85.84v7.819H68.125v-7.819zM86.104 36.046h17.449v7.384h-17.45v-7.384z" style="fill:#642909;fill-opacity:1;fill-rule:evenodd;stroke:#642909;stroke-width:.91249251;stroke-miterlimit:8.69999981;stroke-opacity:0" transform="matrix(.78453 0 0 .8544 20.805 10.151)"/><path d="M102.88 28.252h10.16v7.986h-10.16v-7.986z" style="fill:#642909;fill-opacity:1;fill-rule:evenodd;stroke:#642909;stroke-width:.96712023;stroke-miterlimit:8.69999981;stroke-opacity:0" transform="matrix(.78453 0 0 .8544 20.805 10.151)"/><path d="M62.594 21.06h56.273c1.915 0 3.457 1.267 3.457 2.84v1.704c0 1.574-1.542 2.84-3.457 2.84H62.594c-1.916 0-3.458-1.266-3.458-2.84V23.9c0-1.573 1.542-2.84 3.458-2.84z" style="fill:#642909;fill-opacity:1;fill-rule:evenodd;stroke:#642909;stroke-width:.91249251;stroke-miterlimit:8.69999981;stroke-opacity:0" transform="matrix(.78453 0 0 .8544 20.805 10.151)"/><path d="M49.354 28.662h8.99v6.733h-8.99v-6.733zM41.158 36.48h8.99v6.516h-8.99V36.48z" style="fill:#642909;fill-opacity:1;fill-rule:evenodd;stroke:#642909;stroke-width:.91249251;stroke-miterlimit:8.69999981;stroke-opacity:1" transform="matrix(.78453 0 0 .8544 20.805 10.151)"/><path d="M39.216 5.94c-.5 3.39-2.627 6.256-7.952 8.087-.95 2.981-2.328 5.782-7.672 6.916-2.35 5.36-1.61 11.857-9.347 15.238" style="fill:none;fill-rule:evenodd;stroke:#000;stroke-width:.08055982px;stroke-linecap:butt;stroke-linejoin:miter;stroke-opacity:1" transform="matrix(.78453 0 0 .8544 20.805 10.151)"/><path d="M32.24 13.807c0-.063.261-.224.58-.358 2.624-1.1 4.632-2.82 5.632-4.828.265-.531.549-.985.63-1.007.102-.028.15.976.15 3.133v3.175h-3.496c-2.187 0-3.495-.043-3.495-.115zM25.25 20.648c0-.059.419-.3.932-.536 1.906-.875 3.507-2.445 4.278-4.193.566-1.286.64-1.057.64 2.013v2.823h-2.926c-1.671 0-2.925-.046-2.925-.107zM14.69 35.895c0-.054.306-.26.678-.46.373-.199 1.067-.67 1.542-1.045 2.233-1.764 3.37-3.685 4.605-7.768.3-.995.622-1.83.714-1.856.125-.034.166 1.342.166 5.59v5.636h-3.852c-2.119 0-3.852-.043-3.852-.097z" style="opacity:1;fill:#642909;fill-opacity:1;fill-rule:evenodd;stroke:#642909;stroke-width:1.44840074;stroke-miterlimit:8.69999981;stroke-dasharray:none;stroke-opacity:1" transform="matrix(.78453 0 0 .8544 20.805 10.151)"/><path d="M30.787 14.033c-.899 1.066-1.403 3.86-1.403 3.86l-4.688 2.537c4.05-2.279-2.94.783-2.396 1.313l-1.897 5.823" style="fill:#642909;fill-opacity:1;fill-rule:evenodd;stroke:#642909;stroke-width:.08147255px;stroke-linecap:butt;stroke-linejoin:miter;stroke-opacity:1" transform="matrix(.78453 0 0 .8544 20.805 10.151)"/><path d="M23.518 21.403c0-.025.044-.113.097-.194.093-.143.124-.143.86.001.42.082.789.17.82.195.03.024-.358.044-.862.044-.503 0-.915-.02-.915-.046zM22.281 23.56c-.052-.111-.09-.117-.214-.033-.083.057-4.364 10.534-4.393 10.51-.107-.087 4.71-12.252 4.877-12.33.126-.058.168-.045.168.05 0 .07.045.127.1.127.152 0 .11.55-.092 1.186-.183.577-.33.738-.446.49z" style="opacity:1;fill:#642909;fill-opacity:1;fill-rule:evenodd;stroke:#642909;stroke-width:1.01355422;stroke-miterlimit:8.69999981;stroke-dasharray:none;stroke-opacity:1" transform="matrix(.78453 0 0 .8544 20.805 10.151)"/><path d="m3.887 58.026 9.53-21.797" style="fill:none;fill-rule:evenodd;stroke:#642909;stroke-width:.08147255px;stroke-linecap:butt;stroke-linejoin:miter;stroke-opacity:1" transform="matrix(.78453 0 0 .8544 20.805 10.151)"/><path d="M4.243 58.015c1.76-4.055 9.506-21.665 9.535-21.691.023-.021-.227.11-.105.127l.222.03v21.522h-4.96c-3.946 0-4.956-.01-4.937-.055l.245.067z" style="opacity:1;fill:#642909;fill-opacity:1;fill-rule:evenodd;stroke:#642909;stroke-width:.5496943;stroke-miterlimit:8.69999981;stroke-dasharray:none;stroke-opacity:1" transform="matrix(.78453 0 0 .8544 20.805 10.151)"/><path d="M3.995 65.233c13.82 4.7-5.668 5.48 1.3 15.08 12.588 4.877-.62 6.705-.325 7.206" style="fill:none;fill-rule:evenodd;stroke:#642909;stroke-width:.08147255px;stroke-linecap:butt;stroke-linejoin:miter;stroke-opacity:1" transform="matrix(.78453 0 0 .8544 20.805 10.151)"/><path d="M5.448 72.707c0-.068.752-.79 1.65-1.583 1.344-1.188 1.771-1.666 1.955-2.186.383-1.081-.586-1.999-3.267-3.095-.543-.222-.988-.42-.988-.442 0-.02 2.047-.038 4.548-.038h4.55v7.385H9.67c-2.481 0-4.223-.017-4.223-.04zM4.922 79.623c-.678-1.07-1.029-2.069-1.083-3.089-.048-.885.135-1.652.584-2.451.253-.45.637-.988.706-.988.027 0 .048 1.449.048 3.381 0 2.186-.019 3.38-.053 3.38-.03 0-.12-.104-.202-.233zM5.19 87.453c.013-.03.581-.236 1.264-.458 2.063-.669 3.049-1.12 3.704-1.696.463-.406.623-.695.623-1.127 0-.563-.275-1.008-.989-1.595-.7-.577-1.579-1.073-3.085-1.741-.455-.202-.826-.385-.826-.406 0-.022 1.731-.04 4.007-.04h4.007v7.118H9.531c-3.449 0-4.358-.012-4.34-.055z" style="opacity:1;fill:#642909;fill-opacity:1;fill-rule:evenodd;stroke:#642909;stroke-width:.5496943;stroke-miterlimit:8.69999981;stroke-dasharray:none;stroke-opacity:1" transform="matrix(.78453 0 0 .8544 20.805 10.151)"/><path d="M103.841 117.38c3.06.082 7.44-2.349 10.85-6.617 7.042-5.578 5.57-5.656 7.788-7.437l.932-3.28c1.765-5.438 1.752-9.947 1.598-14.382-.705-4.723-.588-11.856-2.397-13.342-3.346-2.702-8.315-8.165-9.452-7.108" style="fill:none;fill-rule:evenodd;stroke:#000;stroke-width:.08147255px;stroke-linecap:butt;stroke-linejoin:miter;stroke-opacity:1" transform="matrix(.78453 0 0 .8544 20.805 10.151)"/><path d="M104.099 113.702v-3.618h9.644v-6.728h4.134c2.273 0 4.133.015 4.133.034 0 .018-.162.18-.36.358-.198.178-.618.649-.934 1.046-.316.398-.735.907-.931 1.133-.816.936-2.678 2.647-4.287 3.939-.672.54-1.052.9-1.49 1.415-1.883 2.214-3.867 3.839-6.03 4.939-1.114.566-2.483.992-3.428 1.065l-.451.035v-3.618z" style="opacity:1;fill:#414041;fill-opacity:1;fill-rule:evenodd;stroke:#414041;stroke-width:.67093682;stroke-miterlimit:8.69999981;stroke-dasharray:none;stroke-opacity:1" transform="matrix(.78453 0 0 .8544 20.805 10.151)"/><path d="M122.606 87.332c0-11.793.017-14.768.083-14.751.141.036.5.649.682 1.165.461 1.308.694 2.9 1.1 7.517.112 1.278.263 2.785.334 3.349.175 1.38.24 4.351.137 6.302-.127 2.412-.38 4.318-.838 6.288-.323 1.392-1.333 4.858-1.423 4.882-.055.016-.075-3.81-.075-14.752zM113.37 68.73c.02-4.094-.053-3.734.696-3.431.896.362 2.122 1.34 5.108 4.072.986.902 2.105 1.903 2.487 2.224.385.324.674.61.65.642-.032.042-1.375.06-4.502.06h-4.456l.017-3.568z" style="opacity:1;fill:#414041;fill-opacity:1;fill-rule:evenodd;stroke:#414041;stroke-width:.67570281;stroke-miterlimit:8.69999981;stroke-dasharray:none;stroke-opacity:1" transform="matrix(.78453 0 0 .8544 20.805 10.151)"/><path d="M103.654 38.976v-2.73h4.027c2.214 0 4.255-.426 4.19-.382-.064.045-.62.602-.89.674-.956.256-2.98 1.137-3.825 1.665-1.095.685-2.115 1.683-2.76 2.7-.28.443-.56.805-.625.805-.071 0-.117-1.075-.117-2.732z" style="opacity:1;fill:#642909;fill-opacity:1;fill-rule:evenodd;stroke:#642909;stroke-width:1.24998963;stroke-miterlimit:8.69999981;stroke-dasharray:none;stroke-opacity:1" transform="matrix(.78453 0 0 .8544 20.805 10.151)"/><path d="M49.598 6.197c2.673 13.422 6.247 16.1 10.142 14.958" style="fill:none;fill-rule:evenodd;stroke:#642909;stroke-width:.08147255px;stroke-linecap:butt;stroke-linejoin:miter;stroke-opacity:.94117647;display:inline" transform="matrix(.78453 0 0 .8544 20.805 10.151)"/><path d="M50.44 24.306c0-3.24-.05-3.786-.346-3.786-.3 0-.346-.717-.346-5.318 0-4.062.065-5.3.277-5.241.153.042.604 1.135 1.003 2.43 1.178 3.828 2.836 7.156 3.508 7.042.146-.025.215.064.153.197-.157.336 1.17 1.347 1.53 1.165.183-.093.226-.067.12.074-.21.278.773.597 1.837.597h.791V28.093H50.44v-3.787z" style="opacity:1;fill:#642909;fill-opacity:1;fill-rule:evenodd;stroke:#642909;stroke-width:2.3397243;stroke-miterlimit:8.69999981;stroke-dasharray:none;stroke-opacity:.94117647" transform="matrix(.78453 0 0 .8544 20.805 10.151)"/></g><g style="display:inline"><path d="M40.696 21.01h9.276v14.992h-9.276V21.01z" style="fill:#803f12;fill-opacity:1;fill-rule:evenodd;stroke:#803f12;stroke-width:.91382182;stroke-miterlimit:8.69999981;stroke-opacity:1" transform="matrix(.78453 0 0 .8544 20.805 10.151)"/><path d="M13.688 102.079h9.963v7.782h-9.963v-7.782z" style="fill:#803f12;fill-opacity:1;fill-rule:evenodd;stroke:#803f12;stroke-width:.95839912;stroke-miterlimit:8.69999981;stroke-opacity:1" transform="matrix(.78453 0 0 .8544 20.805 10.151)"/></g><g style="display:inline"><path d="M31.685 28.397h9.011v7.605h-9.01v-7.605zM31.95 50.343h8.481v23.033h-8.48V50.343zM22.41 57.731h9.54v7.606h-9.54V57.73zM76.475 35.568h9.276v7.822h-9.276v-7.822z" style="fill:#bc6d2d;fill-opacity:1;fill-rule:evenodd;stroke:#bc6d2d;stroke-width:.91382182;stroke-miterlimit:8.69999981;stroke-opacity:1" transform="matrix(.78453 0 0 .8544 20.805 10.151)"/><path d="M33.01 117.16h8.481v7.171h-8.48v-7.17z" style="fill:#bc6d2d;fill-opacity:1;fill-rule:evenodd;stroke:#c1742d;stroke-width:.91382182;stroke-miterlimit:8.69999981;stroke-opacity:1;display:inline" transform="matrix(.78453 0 0 .8544 20.805 10.151)"/></g><g style="display:inline"><path d="M22.94 36.002h8.745v7.388H22.94v-7.388zM40.961 109.881h8.216v6.954h-8.216v-6.954z" style="fill:#7f3e13;fill-opacity:1;fill-rule:evenodd;stroke:#7f3e13;stroke-width:.91382182;stroke-miterlimit:8.69999981;stroke-opacity:1" transform="matrix(.78453 0 0 .8544 20.805 10.151)"/></g><g style="display:inline"><path d="M13.929 110.316h8.746v14.124h-8.746v-14.124zM21.88 43.173h10.07v7.822H21.88v-7.822z" style="fill:#8e4a19;fill-opacity:1;fill-rule:evenodd;stroke:#8e4a19;stroke-width:.91382182;stroke-miterlimit:8.69999981;stroke-opacity:1" transform="matrix(.78453 0 0 .8544 20.805 10.151)"/></g><g style="display:inline"><path d="M13.399 87.283h9.276v14.124h-9.276V87.283z" style="fill:#6e310c;fill-opacity:1;fill-rule:evenodd;stroke:#6e310c;stroke-width:.91382182;stroke-miterlimit:8.69999981;stroke-opacity:1" transform="matrix(.78453 0 0 .8544 20.805 10.151)"/></g><g style="display:inline"><path d="M22.688 116.846h9.82v7.582h-9.82v-7.582z" style="fill:#c1742d;fill-opacity:1;fill-rule:evenodd;stroke:#c1742d;stroke-width:.93885654;stroke-miterlimit:8.69999981;stroke-opacity:1" transform="matrix(.78453 0 0 .8544 20.805 10.151)"/></g><g style="display:inline"><path d="M41.491 117.486h7.421v6.736h-7.42v-6.736z" style="fill:#9a531f;fill-opacity:.94117647;fill-rule:evenodd;stroke:#9a531f;stroke-width:.91382182;stroke-miterlimit:8.69999981;stroke-opacity:.94117647" transform="matrix(.78453 0 0 .8544 20.805 10.151)"/></g><g style="display:inline"><path d="M22.972 109.69h9.741v6.684h-9.741v-6.684z" style="fill:#ac6226;fill-opacity:1;fill-rule:evenodd;stroke:#ac6226;stroke-width:.97212332;stroke-miterlimit:8.69999981;stroke-opacity:1" transform="matrix(.78453 0 0 .8544 20.805 10.151)"/><path d="M59.054 94.73h10.564v8.443H59.054V94.73z" style="fill:#ac6226;fill-opacity:1;fill-rule:evenodd;stroke:#ac6226;stroke-width:1.04258394;stroke-miterlimit:8.69999981;stroke-opacity:1" transform="matrix(.78453 0 0 .8544 20.805 10.151)"/><path d="M94.762 28.397h9.01v7.388h-9.01v-7.388z" style="fill:#ac6226;fill-opacity:1;fill-rule:evenodd;stroke:#ac6226;stroke-width:.91382182;stroke-miterlimit:8.69999981;stroke-opacity:1" transform="matrix(.78453 0 0 .8544 20.805 10.151)"/></g><g style="display:inline"><path d="M33.01 109.664h7.951v7.388h-7.95v-7.388zM31.155 36.437h9.541v6.736h-9.54v-6.736z" style="fill:#a55c23;fill-opacity:1;fill-rule:evenodd;stroke:#a55c23;stroke-width:.91382182;stroke-miterlimit:8.69999981;stroke-opacity:1" transform="matrix(.78453 0 0 .8544 20.805 10.151)"/></g><g style="display:inline"><path d="M22.41 50.995h9.275v6.52H22.41v-6.52zM49.707 94.888h9.011v7.605h-9.01v-7.605z" style="fill:#c77631;fill-opacity:1;fill-rule:evenodd;stroke:#c77631;stroke-width:.91382182;stroke-miterlimit:8.69999981;stroke-opacity:1" transform="matrix(.78453 0 0 .8544 20.805 10.151)"/></g><g style="display:inline"><path d="M22.94 65.771h8.215v6.953H22.94v-6.953z" style="fill:#cb7c39;fill-opacity:1;fill-rule:evenodd;stroke:#cb7c39;stroke-width:.91382182;stroke-miterlimit:8.69999981;stroke-opacity:1" transform="matrix(.78453 0 0 .8544 20.805 10.151)"/></g><g style="display:inline"><path d="M22.675 73.376h9.275v6.736h-9.275v-6.736zM31.95 95.105h16.962v7.388H31.95v-7.388zM49.972 87.5h9.011v7.17h-9.01V87.5z" style="fill:#d28a4a;fill-opacity:1;fill-rule:evenodd;stroke:#d28a4a;stroke-width:.91382182;stroke-miterlimit:8.69999981;stroke-opacity:1" transform="matrix(.78453 0 0 .8544 20.805 10.151)"/></g><g style="display:inline"><path d="M23.205 80.764h9.01v6.954h-9.01v-6.954zM41.491 80.547h7.951v6.736h-7.95v-6.736zM32.216 87.717h16.961v6.954H32.216v-6.954zM41.226 42.956h8.746v7.387h-8.746v-7.387zM76.475 28.397h9.806v7.388h-9.806v-7.388zM58.453 35.568h9.806v7.822h-9.806v-7.822z" style="fill:#dfaa6e;fill-opacity:1;fill-rule:evenodd;stroke:#dfaa6e;stroke-width:.91382182;stroke-miterlimit:8.69999981;stroke-opacity:1" transform="matrix(.78453 0 0 .8544 20.805 10.151)"/></g><g style="display:inline"><path d="M22.94 87.935h8.745v6.736H22.94v-6.736z" style="fill:#d99a5c;fill-opacity:1;fill-rule:evenodd;stroke:#d99a5c;stroke-width:.91382182;stroke-miterlimit:8.69999981;stroke-opacity:1" transform="matrix(.78453 0 0 .8544 20.805 10.151)"/><path d="M32.122 73.734h17.414v6.238H32.122v-6.238z" style="fill:#d99a5c;fill-opacity:1;fill-rule:evenodd;stroke:#d99a5c;stroke-width:1.22472548;stroke-miterlimit:8.69999981;stroke-opacity:1" transform="matrix(.78453 0 0 .8544 20.805 10.151)"/><path d="M49.442 80.547h9.011v6.519h-9.01v-6.52z" style="fill:#d99a5c;fill-opacity:1;fill-rule:evenodd;stroke:#d99a5c;stroke-width:.91382182;stroke-miterlimit:8.69999981;stroke-opacity:1" transform="matrix(.78453 0 0 .8544 20.805 10.151)"/></g><g style="display:inline"><path d="M22.41 95.105h9.01v7.171h-9.01v-7.17z" style="fill:#a85e25;fill-opacity:1;fill-rule:evenodd;stroke:#a85e25;stroke-width:.91382182;stroke-miterlimit:8.69999981;stroke-opacity:1" transform="matrix(.78453 0 0 .8544 20.805 10.151)"/><path d="M68.72 88.095h7.824v14.455H68.72V88.095z" style="fill:#a85e25;fill-opacity:1;fill-rule:evenodd;stroke:#a85e25;stroke-width:1.26805162;stroke-miterlimit:8.69999981;stroke-opacity:1" transform="matrix(.78453 0 0 .8544 20.805 10.151)"/><path d="M40.696 50.995h9.276v6.954h-9.276v-6.954z" style="fill:#a85e25;fill-opacity:1;fill-rule:evenodd;stroke:#a85e25;stroke-width:.91382182;stroke-miterlimit:8.69999981;stroke-opacity:1" transform="matrix(.78453 0 0 .8544 20.805 10.151)"/></g><g style="display:inline"><path d="M32.216 43.607h8.745v6.52h-8.745v-6.52z" style="fill:#ce8240;fill-opacity:1;fill-rule:evenodd;stroke:#ce8240;stroke-width:.91382182;stroke-miterlimit:8.69999981;stroke-opacity:1" transform="matrix(.78453 0 0 .8544 20.805 10.151)"/></g><g style="display:inline"><path d="M32.216 80.764h8.745v6.954h-8.745v-6.954zM50.237 35.785h8.216v7.388h-8.216v-7.388zM58.718 28.614h9.276v6.302h-9.276v-6.302z" style="fill:#f2dcaf;fill-opacity:1;fill-rule:evenodd;stroke:#f2dcaf;stroke-width:.91382182;stroke-miterlimit:8.69999981;stroke-opacity:1" transform="matrix(.78453 0 0 .8544 20.805 10.151)"/></g><g style="display:inline"><path d="M67.729 28.614h9.806v7.171h-9.806v-7.17z" style="fill:#e9c38f;fill-opacity:1;fill-rule:evenodd;stroke:#e9c38f;stroke-width:.91382182;stroke-miterlimit:8.69999981;stroke-opacity:1" transform="matrix(.78453 0 0 .8544 20.805 10.151)"/></g><g style="display:inline"><path d="M86.546 28.18h8.48v7.822h-8.48V28.18z" style="fill:#ce8240;fill-opacity:1;fill-rule:evenodd;stroke:#ce8240;stroke-width:.91382182;stroke-miterlimit:8.69999981;stroke-opacity:1" transform="matrix(.78453 0 0 .8544 20.805 10.151)"/></g><g style="display:inline"><path d="M67.729 36.437h9.01v7.17h-9.01v-7.17zM49.972 43.825h9.011v6.301h-9.01v-6.301z" style="fill:#d69455;fill-opacity:1;fill-rule:evenodd;stroke:#d69455;stroke-width:.91382182;stroke-miterlimit:8.69999981;stroke-opacity:1" transform="matrix(.78453 0 0 .8544 20.805 10.151)"/></g><g style="display:inline"><path d="M60.043 44.042h7.686v6.301h-7.686v-6.3z" style="fill:#954f1d;fill-opacity:1;fill-rule:evenodd;stroke:#954f1d;stroke-width:.91382182;stroke-miterlimit:8.69999981;stroke-opacity:1" transform="matrix(.78453 0 0 .8544 20.805 10.151)"/></g><g style="display:inline"><path d="M49.972 50.778h9.011v7.17h-9.01v-7.17z" style="fill:#86451b;fill-opacity:1;fill-rule:evenodd;stroke:#86451b;stroke-width:.91382182;stroke-miterlimit:8.69999981;stroke-opacity:1" transform="matrix(.78453 0 0 .8544 20.805 10.151)"/></g><g style="display:inline"><path d="M40.696 65.771h9.011v7.388h-9.01v-7.388zM49.972 58.818h8.746v6.301h-8.746v-6.301z" style="fill:#dfae85;fill-opacity:1;fill-rule:evenodd;stroke:#dfae85;stroke-width:.91382182;stroke-miterlimit:8.69999981;stroke-opacity:1" transform="matrix(.78453 0 0 .8544 20.805 10.151)"/></g><g style="display:inline"><path d="M50.008 72.754h8.939V80.3h-8.939v-7.546z" style="fill:#ebebea;fill-opacity:1;fill-rule:evenodd;stroke:#ebebea;stroke-width:.97923964;stroke-miterlimit:8.69999981;stroke-opacity:1" transform="matrix(.78453 0 0 .8544 20.805 10.151)"/><path d="M85.75 94.67h27.298v7.171H85.751v-7.17z" style="fill:#ebebea;fill-opacity:1;fill-rule:evenodd;stroke:#ebebea;stroke-width:.91382182;stroke-miterlimit:8.69999981;stroke-opacity:1" transform="matrix(.78453 0 0 .8544 20.805 10.151)"/><path d="M104.037 87.5h9.011v7.605h-9.01V87.5z" style="fill:#ebebea;fill-opacity:1;fill-rule:evenodd;stroke:#ebebea;stroke-width:.91382182;stroke-miterlimit:8.69999981;stroke-opacity:1" transform="matrix(.78453 0 0 .8544 20.805 10.151)"/></g><g style="display:inline"><path d="M59.248 58.383h8.481v6.954h-8.48v-6.954z" style="fill:#b47b50;fill-opacity:1;fill-rule:evenodd;stroke:#b47b50;stroke-width:.91382182;stroke-miterlimit:8.69999981;stroke-opacity:1" transform="matrix(.78453 0 0 .8544 20.805 10.151)"/></g><g style="display:inline"><path d="M58.983 80.33h8.746v14.558h-8.746V80.33z" style="fill:#b4682c;fill-opacity:1;fill-rule:evenodd;stroke:#b4682c;stroke-width:.91382182;stroke-miterlimit:8.69999981;stroke-opacity:1" transform="matrix(.78453 0 0 .8544 20.805 10.151)"/></g><g style="display:inline"><path d="M59.4 73.402h8.197v6.515H59.4v-6.515z" style="fill:#414041;fill-opacity:1;fill-rule:evenodd;stroke:#414041;stroke-width:.91249251;stroke-miterlimit:8.69999981;stroke-opacity:1" transform="matrix(.78453 0 0 .8544 20.805 10.151)"/><path d="M85.848 65.317h26.95v7.209h-26.95v-7.209z" style="fill:#414041;fill-opacity:1;fill-rule:evenodd;stroke:#414041;stroke-width:.92899066;stroke-miterlimit:8.69999981;stroke-opacity:1" transform="matrix(.78453 0 0 .8544 20.805 10.151)"/><path d="M113.864 72.75h8.196v30.189h-8.196V72.75zM103.289 102.07h10.046v7.602H103.29v-7.602z" style="fill:#414041;fill-opacity:1;fill-rule:evenodd;stroke:#414041;stroke-width:.91249251;stroke-miterlimit:8.69999981;stroke-opacity:1" transform="matrix(.78453 0 0 .8544 20.805 10.151)"/><path d="M68.662 110.112h34.884v7.157H68.662v-7.157z" style="fill:#414041;fill-opacity:1;fill-rule:evenodd;stroke:#414041;stroke-width:.9257676;stroke-miterlimit:8.69999981;stroke-opacity:1" transform="matrix(.78453 0 0 .8544 20.805 10.151)"/><path d="M122.013 28.343c-4.281 1.12-7.96 2.93-8.99 7.79-5.241 1.009-8.63 3.307-9.604 7.282-6.302 1.887-15.412-.18-17.609 7.486-19.565 1.969-11.337 6.923.493 7.283" style="fill:none;fill-rule:evenodd;stroke:#242909;stroke-width:.08147255px;stroke-linecap:butt;stroke-linejoin:miter;stroke-opacity:1" transform="matrix(.78453 0 0 .8544 20.805 10.151)"/><path d="m67.955 58.184 8.99.101" style="fill:none;fill-rule:evenodd;stroke:#642909;stroke-width:.08147255px;stroke-linecap:butt;stroke-linejoin:miter;stroke-opacity:1" transform="matrix(.78453 0 0 .8544 20.805 10.151)"/><path d="m68.714 58.091-.524-.038v-6.968h7.167c3.942 0 9.188.606 9.124.653-.064.047-2.829-.378-3.607-.25-1.708.282-3.979.873-5.028 1.307-1.378.572-2.045 1.337-1.817 2.085.35 1.144 3.538 2.394 7.56 2.966.767.109 1.427.225 1.468.259.079.064-13.458.052-14.343-.014zM85.922 46.487v-3.11l8.392.026c4.616.015 6.958.283 6.92.313-.219.18-1.018.283-4.907.723a48.614 48.614 0 0 0-3.116.458c-3.42.67-5.514 1.956-6.708 4.12-.176.319-.38.58-.45.58-.09 0-.13-.995-.13-3.11zM113.136 31.491v-3.035h3.96c2.18 0 3.47.171 3.442.192-.028.021-.054.053-.63.26-2.919 1.046-4.72 2.383-5.884 4.369-.266.453-.514.92-.552 1.037-.037.116-.128.212-.202.212-.094 0-.134-.906-.134-3.035z" style="opacity:1;fill:#642909;fill-opacity:1;fill-rule:evenodd;stroke:#642909;stroke-width:1.24998963;stroke-miterlimit:8.69999981;stroke-dasharray:none;stroke-opacity:1" transform="matrix(.78453 0 0 .8544 20.805 10.151)"/><path d="M68.323 117.408c-6.303.584-7.962 3.809-9.417 7.15" style="fill:#523526;fill-opacity:1;fill-rule:evenodd;stroke:#000;stroke-width:.08147255px;stroke-linecap:butt;stroke-linejoin:miter;stroke-opacity:1" transform="matrix(.78453 0 0 .8544 20.805 10.151)"/><path d="M59.247 116.486v-6.505h3.924c3.392 0 3.924.024 3.924.176 0 .123.15.176.499.176h.5v7.002l-.892.136c-3.263.498-5.51 1.911-7.056 4.436-.364.596-.716 1.084-.781 1.084-.065 0-.118-2.927-.118-6.505z" style="opacity:1;fill:#523526;fill-opacity:1;fill-rule:evenodd;stroke:#523526;stroke-width:1.44840074;stroke-miterlimit:8.69999981;stroke-dasharray:none;stroke-opacity:1" transform="matrix(.78453 0 0 .8544 20.805 10.151)"/></g><g style="display:inline"><path d="M68.259 57.949h9.01v7.605h-9.01v-7.605z" style="fill:#804017;fill-opacity:1;fill-rule:evenodd;stroke:#804017;stroke-width:.91382182;stroke-miterlimit:8.69999981;stroke-opacity:1" transform="matrix(.78453 0 0 .8544 20.805 10.151)"/></g><g style="display:inline"><path d="M67.464 65.771h9.54v7.388h-9.54v-7.388z" style="fill:#936a48;fill-opacity:1;fill-rule:evenodd;stroke:#936a48;stroke-width:.91382182;stroke-miterlimit:8.69999981;stroke-opacity:1" transform="matrix(.78453 0 0 .8544 20.805 10.151)"/></g><g style="display:inline"><path d="M67.994 73.81h9.54v13.908h-9.54V73.81z" style="fill:#c27739;fill-opacity:1;fill-rule:evenodd;stroke:#c27739;stroke-width:.91382182;stroke-miterlimit:8.69999981;stroke-opacity:1" transform="matrix(.78453 0 0 .8544 20.805 10.151)"/></g><g style="display:inline"><path d="M67.729 103.362h8.746v6.52h-8.746v-6.52zM86.016 80.764h9.01V87.5h-9.01v-6.736z" style="fill:#727476;fill-opacity:1;fill-rule:evenodd;stroke:#727476;stroke-width:.91382182;stroke-miterlimit:8.69999981;stroke-opacity:1" transform="matrix(.78453 0 0 .8544 20.805 10.151)"/></g><g style="display:inline"><path d="M77.563 64.925h7.895v7.56h-7.895v-7.56z" style="fill:#a7602a;fill-opacity:1;fill-rule:evenodd;stroke:#a7602a;stroke-width:.96462673;stroke-miterlimit:8.69999981;stroke-opacity:1" transform="matrix(.78453 0 0 .8544 20.805 10.151)"/></g><g style="display:inline"><path d="M77.005 72.942h8.746v7.388h-8.746v-7.388z" style="fill:#cc914e;fill-opacity:1;fill-rule:evenodd;stroke:#cc914e;stroke-width:.91382182;stroke-miterlimit:8.69999981;stroke-opacity:1" transform="matrix(.78453 0 0 .8544 20.805 10.151)"/></g><g style="display:inline"><path d="M77.535 80.33h8.216v7.822h-8.216V80.33z" style="fill:#c18c57;fill-opacity:1;fill-rule:evenodd;stroke:#c18c57;stroke-width:.91382182;stroke-miterlimit:8.69999981;stroke-opacity:1" transform="matrix(.78453 0 0 .8544 20.805 10.151)"/></g><g style="display:inline"><path d="M77.005 88.804h8.48v6.084h-8.48v-6.084z" style="fill:#c1a080;fill-opacity:1;fill-rule:evenodd;stroke:#c1a080;stroke-width:.91382182;stroke-miterlimit:8.69999981;stroke-opacity:1" transform="matrix(.78453 0 0 .8544 20.805 10.151)"/></g><g style="display:inline"><path d="M85.75 88.152h9.542v6.953H85.75v-6.953zM104.568 72.942h8.48v7.388h-8.48v-7.388z" style="fill:#c5c5c1;fill-opacity:1;fill-rule:evenodd;stroke:#c5c5c1;stroke-width:.91382182;stroke-miterlimit:8.69999981;stroke-opacity:1" transform="matrix(.78453 0 0 .8544 20.805 10.151)"/></g><g style="display:inline"><path d="M85.75 73.159h9.012v7.17H85.75v-7.17z" style="fill:#e6d2ba;fill-opacity:1;fill-rule:evenodd;stroke:#e6d2ba;stroke-width:.91382182;stroke-miterlimit:8.69999981;stroke-opacity:1" transform="matrix(.78453 0 0 .8544 20.805 10.151)"/></g><g style="display:inline"><path d="M77.005 95.54h8.746v7.17h-8.746v-7.17z" style="fill:#c5b39f;fill-opacity:1;fill-rule:evenodd;stroke:#c5b39f;stroke-width:.91382182;stroke-miterlimit:8.69999981;stroke-opacity:1" transform="matrix(.78453 0 0 .8544 20.805 10.151)"/></g><g style="display:inline"><path d="M77.005 103.58h8.746v6.084h-8.746v-6.084z" style="fill:#a0a09e;fill-opacity:1;fill-rule:evenodd;stroke:#a0a09e;stroke-width:.91382182;stroke-miterlimit:8.69999981;stroke-opacity:1" transform="matrix(.78453 0 0 .8544 20.805 10.151)"/></g><g style="display:inline"><path d="M86.28 102.493h8.482v6.954H86.28v-6.954z" style="fill:#aaaaa6;fill-opacity:1;fill-rule:evenodd;stroke:#aaaaa6;stroke-width:.91382182;stroke-miterlimit:8.69999981;stroke-opacity:1" transform="matrix(.78453 0 0 .8544 20.805 10.151)"/></g><g style="display:inline"><path d="M94.292 102.543h8.094v7.506h-8.094v-7.506z" style="fill:#a4a5a2;fill-opacity:1;fill-rule:evenodd;stroke:#a4a5a2;stroke-width:1.02406108;stroke-miterlimit:8.69999981;stroke-opacity:1" transform="matrix(.78453 0 0 .8544 20.805 10.151)"/></g><g style="display:inline"><path d="M95.557 80.547h8.48v7.17h-8.48v-7.17z" style="fill:#171614;fill-opacity:1;fill-rule:evenodd;stroke:#171614;stroke-width:.91382182;stroke-miterlimit:8.69999981;stroke-opacity:1" transform="matrix(.78453 0 0 .8544 20.805 10.151)"/></g><g style="display:inline"><path d="M95.557 88.152h7.685v6.302h-7.685v-6.302z" style="fill:#a0a09e;fill-opacity:1;fill-rule:evenodd;stroke:#a0a09e;stroke-width:.91382182;stroke-miterlimit:8.69999981;stroke-opacity:1" transform="matrix(.78453 0 0 .8544 20.805 10.151)"/></g></svg>