<?xml version="1.0" encoding="utf-8"?>
<svg fill="none" height="24px" viewBox="0 0 24 24" width="24px" xmlns="http://www.w3.org/2000/svg" xmlns:bx="https://boxy-svg.com">
  <path d="M 12 7 C 12.552 7 13 7.225 13 7.5 L 13 12.5 C 13 12.776 12.552 13 12 13 C 11.448 13 11 12.776 11 12.5 L 11 7.5 C 11 7.225 11.448 7 12 7 Z" style="fill: rgb(43, 43, 43);" bx:origin="0 0"/>
  <path d="M 12 17 C 12.552 17 13 16.553 13 16 C 13 15.448 12.552 15 12 15 C 11.448 15 11 15.448 11 16 C 11 16.553 11.448 17 12 17 Z" style="fill: rgb(43, 43, 43);" bx:origin="0 0"/>
  <path d="M 11.644 2.105 C 11.861 1.965 12.14 1.965 12.356 2.105 C 14.849 3.72 17.544 4.727 20.448 5.132 C 20.765 5.175 21 5.439 21 5.75 L 21 11.375 C 21 16.239 18.035 19.789 12.231 21.958 C 12.082 22.013 11.918 22.013 11.77 21.958 C 5.966 19.789 3 16.239 3 11.375 L 3 5.75 C 3 5.439 3.235 5.175 3.552 5.132 C 6.456 4.727 9.152 3.72 11.644 2.105 Z M 11.484 3.683 C 9.24 4.995 6.839 5.865 4.286 6.286 L 4.286 11.375 C 4.286 15.615 6.816 18.702 12 20.703 C 17.184 18.702 19.714 15.615 19.714 11.375 L 19.714 6.286 C 17.162 5.865 14.76 4.995 12.516 3.683 L 12 3.371 L 11.484 3.683 Z" style="fill: rgb(185, 5, 5);" bx:origin="0 0"/>
</svg>