<?xml version="1.0" encoding="utf-8"?>
<svg viewBox="0 0 512 512" style="enable-background:new 0 0 512 512;" xmlns="http://www.w3.org/2000/svg">
  <g style="" transform="matrix(0.865222, 0, 0, 0.885073, 35, 27.451262)">
    <rect y="262.912" style="fill:#56545A;" width="90.353" height="45.176"/>
    <rect x="61.746" y="411.98" transform="matrix(-0.7071 0.7071 -0.7071 -0.7071 489.8141 666.249)" style="fill:#56545A;" width="90.352" height="45.176"/>
  </g>
  <g style="" transform="matrix(0.865222, 0, 0, 0.885073, 35, 27.451262)">
    <rect x="359.894" y="411.991" transform="matrix(0.7071 0.7071 -0.7071 0.7071 425.9363 -159.1427)" style="fill:#272729;" width="90.352" height="45.176"/>
    <rect x="421.647" y="262.912" style="fill:#272729;" width="90.353" height="45.176"/>
    <rect x="359.902" y="113.842" transform="matrix(0.7071 -0.7071 0.7071 0.7071 22.1736 326.3927)" style="fill:#272729;" width="90.352" height="45.176"/>
  </g>
  <g style="" transform="matrix(0.865222, 0, 0, 0.885073, 35, 27.451262)">
    <rect x="61.754" y="113.847" transform="matrix(-0.7071 -0.7071 0.7071 -0.7071 86.0663 308.5191)" style="fill:#56545A;" width="90.352" height="45.176"/>
    <path style="fill:#56545A;" d="M256,29.504c-41.583,0-75.294,33.711-75.294,75.294c0,10.249,2.048,20.019,5.755,28.925 l138.915,0.382c3.81-9.008,5.917-18.912,5.917-29.307C331.294,63.213,297.583,29.504,256,29.504z"/>
  </g>
  <path style="fill: rgb(39, 39, 41);" d="M 256.497 53.565 L 256.497 145.975 L 316.525 146.144 C 319.821 138.171 321.644 129.406 321.644 120.205 C 321.643 83.4 292.475 53.565 256.497 53.565 Z"/>
  <circle style="fill: rgb(255, 79, 25);" cx="256" cy="285.5" r="180.706" transform="matrix(0.865222, 0, 0, 0.885073, 35, 27.451262)"/>
  <path style="fill: rgb(175, 46, 8);" d="M 256.497 120.205 L 256.497 440.081 C 342.847 440.081 412.848 368.474 412.848 280.143 C 412.848 191.812 342.847 120.205 256.497 120.205 Z"/>
  <g style="" transform="matrix(0.865222, 0, 0, 0.885073, 35, 27.451262)">
    <path style="fill:#56545A;" d="M278.588,225.269h-45.176v239.538c7.4,0.923,14.938,1.403,22.588,1.403 c7.65,0,15.188-0.48,22.588-1.403V225.269z"/>
    <path style="fill:#56545A;" d="M165.647,345.74c-16.607,0-30.118-13.511-30.118-30.118s13.511-30.118,30.118-30.118 s30.118,13.511,30.118,30.118S182.254,345.74,165.647,345.74z"/>
  </g>
  <path style="fill: rgb(39, 39, 41);" d="M 334.672 333.456 C 320.304 333.456 308.614 321.498 308.614 306.8 C 308.614 292.102 320.304 280.143 334.672 280.143 C 349.041 280.143 360.732 292.102 360.732 306.8 C 360.732 321.498 349.041 333.456 334.672 333.456 Z"/>
  <path style="fill: rgb(86, 84, 90);" d="M 103.555 246.823 L 409.441 246.823 C 406.519 232.719 401.784 219.301 395.49 206.839 L 117.505 206.839 C 111.21 219.3 106.476 232.719 103.555 246.823 Z"/>
  <path style="fill: rgb(39, 39, 41);" d="M 256.497 246.823 L 409.439 246.823 C 406.517 232.719 401.782 219.301 395.489 206.839 L 256.497 206.839 L 256.497 246.823 Z"/>
  <g style="" transform="matrix(0.865222, 0, 0, 0.885073, 35, 27.451262)"/>
  <g style="" transform="matrix(0.865222, 0, 0, 0.885073, 35, 27.451262)"/>
  <g style="" transform="matrix(0.865222, 0, 0, 0.885073, 35, 27.451262)"/>
  <g style="" transform="matrix(0.865222, 0, 0, 0.885073, 35, 27.451262)"/>
  <g style="" transform="matrix(0.865222, 0, 0, 0.885073, 35, 27.451262)"/>
  <g style="" transform="matrix(0.865222, 0, 0, 0.885073, 35, 27.451262)"/>
  <g style="" transform="matrix(0.865222, 0, 0, 0.885073, 35, 27.451262)"/>
  <g style="" transform="matrix(0.865222, 0, 0, 0.885073, 35, 27.451262)"/>
  <g style="" transform="matrix(0.865222, 0, 0, 0.885073, 35, 27.451262)"/>
  <g style="" transform="matrix(0.865222, 0, 0, 0.885073, 35, 27.451262)"/>
  <g style="" transform="matrix(0.865222, 0, 0, 0.885073, 35, 27.451262)"/>
  <g style="" transform="matrix(0.865222, 0, 0, 0.885073, 35, 27.451262)"/>
  <g style="" transform="matrix(0.865222, 0, 0, 0.885073, 35, 27.451262)"/>
  <g style="" transform="matrix(0.865222, 0, 0, 0.885073, 35, 27.451262)"/>
  <g style="" transform="matrix(0.865222, 0, 0, 0.885073, 35, 27.451262)"/>
</svg>