<?xml version="1.0" encoding="utf-8"?>
<svg viewBox="0 0 16 16" width="16px" height="16px" xmlns="http://www.w3.org/2000/svg" xmlns:bx="https://boxy-svg.com">
  <path d="M 13.839 3.448 C 13.811 3.318 13.683 3.19 13.553 3.162 C 12.798 3 12.208 3 11.619 3 C 9.199 3 7.749 4.294 6.665 6 L 4.223 6 C 3.84 6 3.39 6.278 3.217 6.621 L 2.059 8.937 C 2.023 9.016 2.003 9.1 2 9.187 C 2 9.498 2.252 9.75 2.563 9.75 L 4.996 9.75 L 4.469 10.276 C 4.203 10.543 4.165 11.032 4.469 11.337 L 5.662 12.53 C 5.923 12.793 6.416 12.838 6.724 12.53 L 7.25 12.004 L 7.25 14.437 C 7.25 14.748 7.502 15 7.813 15 C 7.9 14.997 7.984 14.977 8.064 14.941 L 10.378 13.783 C 10.72 13.612 10.999 13.162 10.999 12.779 L 10.999 10.331 C 12.701 9.246 14 7.79 14 5.383 C 14.002 4.793 14.002 4.202 13.839 3.448 Z M 11.001 6.937 C 10.279 6.937 9.829 6.156 10.189 5.531 C 10.551 4.906 11.452 4.906 11.813 5.531 C 11.896 5.674 11.939 5.836 11.939 6 C 11.938 6.517 11.519 6.937 11.001 6.937 Z" bx:origin="0 0"/>
</svg>