<svg xmlns="http://www.w3.org/2000/svg" width="16" height="16" viewBox="0 0 16 16"><path d="M8 2a6 6 0 1 0 0 12A6 6 0 0 0 8 2m0 1h.8l.4.2.7.2.4.2.1.1.1.1-.2.2h.1c0 .1 0 .1 0 0h.6-.1l-.1.1-.1.1h-.1l-.3.1h.2v.2c.1 0 .1.2 0 .2H10v.6h.1l.1.1v.2H10v.2c-.1 0-.2 0-.2.2l-.1.2h-.1l-.2.2-.1.2-.1.2v.8l.1.1.2.2v.2h.2v.1l.3.2h.2l.1-.1h.4l.4-.1.2.2h.2c.1.1 0 .2 0 .2V9l.2.1.1.3-.1.6s-.2 0-.2.2l.1.4v.4c.1 0 0 .2 0 .2v.2h.1v.1A5.2 5.2 0 0 1 9 13a5 5 0 0 1-1.7 0H7c-.3 0-.6-.2-.8-.3h.1v-.2h.4V12l-.1-.1h.2l.2-.2v-.1l.1-.1.1-.1v-.3l.3-.2.2-.1.2-.2v-.5c0-.2.1-.2.2-.3l.2-.4v-.2h-.1L7.8 9h-.4v-.1h-.2L7 8.7c0-.2-.1-.2-.2-.3v-.2h-.4L6.2 8H6v-.2c-.1-.1 0 0-.1 0 0-.1-.1-.2-.2-.1h-.4L5 7.6c0-.1 0 0 0 0h-.3l-.1.1-.1.2H4v-.7h-.4v-.1l.1-.2.1-.2h-.2c-.2 0-.1.2-.2.2H3c0-.4.2-.7.3-1h1v.2l.2.1V6c0-.2.1-.2.2-.3h.1l.2-.1.2-.2v-.2h.1l.1-.1V5h.4v-.2l.3-.1s.1-.2.2-.1c0 .2 0 0 .1 0h.3s.1 0 0-.2c0 .1 0 0-.1 0 0 0 0 .1 0 0h-.1v-.2h-.1V4h.3c0 .1 0 0 0 0H7l.1-.1c0 .2-.2.2-.2.3h.3l.1.1v-.2h-.1V4l.1-.2v-.1L7 3.6v-.4l-.2.1h-.2v-.1H7V3h.2A4.6 4.6 0 0 1 8 3zm-2 .5c0 .2-.2.2-.4.2V4l-.2.1h-.1v-.2h.1l.6-.3m4.2.2H10V4h.2v-.2h.1l-.1-.1zm-5.5.6s.1.1 0 .1h-.1v-.1m.3.2H5v.1l-.2.2v-.4zm-.3 0-.2.3c-.2 0 0 0 0-.1l.1-.2h.1zm6.8.2h.2l.1.2h.1l.2.3c.2 0 .2.2.3.3l.1.2V6H12l-.2-.1-.1-.1h-.2l-.1-.1v-.2h-.9l-.1.1h-.2c0-.2.1-.1.2-.2h.1l.2-.1V5l.1-.2h.1v-.1h.3l.1-.1h.1zm.6.6h-.2.1m-6.8-.6h.1-.1m-.2.1-.1.1h-.1.2zm6.5 0V5c0-.1 0 0 0 0m0 0v.2V5M3 7.3l.1.2h.4l.2.2v.1l.1.1H4V8l.2.2V8h.2v.5l-.1.2h-.1V9l-.1.2v.1l.1.1.1.2.2.3v.1c.1 0 0 0 0 0 .1.2.3.3.4.3H5l.2.2v1.1l.1.2v.4l-.8-.7h-.1l-.5-.7-.5-.9A5 5 0 0 1 3 9v-.2a5 5 0 0 1 0-1.6m2 .5V8" fill="#209ae7" color="#000"/></svg>